<?xml version="1.0" encoding="utf-8"?>
<!-- Generator: Adobe Illustrator 21.0.0, SVG Export Plug-In . SVG Version: 6.00 Build 0)  -->
<svg version="1.1"
	 id="SVGRoot" inkscape:export-filename="C:\Users\guotianqi\iCloudDrive\Documents\logo\new\favicon-512x512.png" inkscape:export-xdpi="96" inkscape:export-ydpi="96" inkscape:version="0.92.3 (2405546, 2018-03-11)" sodipodi:docname="favicon2.svg" xmlns:cc="http://creativecommons.org/ns#" xmlns:dc="http://purl.org/dc/elements/1.1/" xmlns:inkscape="http://www.inkscape.org/namespaces/inkscape" xmlns:osb="http://www.openswatchbook.org/uri/2009/osb" xmlns:rdf="http://www.w3.org/1999/02/22-rdf-syntax-ns#" xmlns:sodipodi="http://sodipodi.sourceforge.net/DTD/sodipodi-0.dtd" xmlns:svg="http://www.w3.org/2000/svg"
	 xmlns="http://www.w3.org/2000/svg" xmlns:xlink="http://www.w3.org/1999/xlink" x="0px" y="0px" viewBox="0 0 512 512"
	 style="enable-background:new 0 0 512 512;" xml:space="preserve">
<style type="text/css">
	.st0{fill:#FFFFFF;stroke:#FFFFFF;stroke-width:2.8571;}
	.st1{fill:#FF0000;}
	.st2{font-family:'Helvetica';}
	.st3{font-size:407.0475px;}
	.st4{fill:#00FF00;}
	.st5{font-family:'Helvetica-Bold';}
	.st6{font-size:223.4348px;}
	.st7{fill:#0000FF;}
	.st8{font-size:236.1637px;}
</style>
<sodipodi:namedview  bordercolor="#666666" borderopacity="1.0" id="base" inkscape:current-layer="layer1" inkscape:cx="41.429674" inkscape:cy="225.45545" inkscape:document-units="px" inkscape:pageopacity="0.0" inkscape:pageshadow="2" inkscape:window-height="847" inkscape:window-maximized="1" inkscape:window-width="1440" inkscape:window-x="-8" inkscape:window-y="-8" inkscape:zoom="0.98994949" pagecolor="#ffffff" showgrid="false">
	</sodipodi:namedview>
<g id="layer1" inkscape:groupmode="layer" inkscape:label="Layer 1">
	<circle id="path234" cx="255.7" cy="254.9" r="252.9"/>
	<path id="path240" inkscape:connector-curvature="0" class="st0" d="M193.8,498.2c-88.7-22.9-157.4-91.4-181.9-181.3
		c-8.6-31.4-8.4-92.5,0.3-124.6C32.4,118,84.7,56.4,154.6,24.7c61.7-28,142.3-27.4,204.9,1.5C489.8,86.4,544,240.2,479.8,368
		c-27,53.6-78.9,100.7-134,121.4C299,507,240.9,510.3,193.8,498.2L193.8,498.2z"/>
	<text transform="matrix(1.0374 0.238 -0.3227 0.9465 -46.2468 314.1843)" class="st1 st2 st3">G</text>
	<text transform="matrix(0.93 -7.960245e-02 0.1186 0.9929 292.7531 476.2949)" class="st4 st5 st6">T</text>
	<text transform="matrix(0.9939 0.1025 -6.242275e-02 0.998 311.7559 283.8073)" class="st7 st5 st8">Q</text>
</g>
</svg>
